PathFileType	4	(X/Y/Z)	Kaydara	
DataRate	CameraRate	NumFrames	NumMarkers	Units	OrigDataRate	OrigDataStartFrame	OrigNumFrames	
120.00	120.00	8	29	mm	120.00	356	2847	
Frame#	Time	Pelvis			Left_hip			Left_knee			Left_ankle			Left_foot			Left_foot_End			Right_hip			Right_knee			Right_ankle			Right_foot			Right_foot_End			Spine1			Spine2			Spine3			Neck			Head			Head_End			Left_collar			Left_shoulder			Left_elbow			Left_wrist			Left_palm			Left_palm_End			Right_collar			Right_shoulder			Right_elbow			Right_wrist			Right_palm			Right_palm_End			
		X1	Y1	Z1	X2	Y2	Z2	X3	Y3	Z3	X4	Y4	Z4	X5	Y5	Z5	X6	Y6	Z6	X7	Y7	Z7	X8	Y8	Z8	X9	Y9	Z9	X10	Y10	Z10	X11	Y11	Z11	X12	Y12	Z12	X13	Y13	Z13	X14	Y14	Z14	X15	Y15	Z15	X16	Y16	Z16	X17	Y17	Z17	X18	Y18	Z18	X19	Y19	Z19	X20	Y20	Z20	X21	Y21	Z21	X22	Y22	Z22	X23	Y23	Z23	X24	Y24	Z24	X25	Y25	Z25	X26	Y26	Z26	X27	Y27	Z27	X28	Y28	Z28	X29	Y29	Z29	

356	2.958	670.24002	983.82004	-600.61001	598.83473	911.99337	-584.60960	570.05749	579.52446	-784.47756	604.01510	183.18449	-624.46965	529.11517	130.23928	-733.10164	529.11517	130.23928	-733.10164	714.51458	889.63836	-566.21683	763.99863	518.71798	-661.50837	815.01324	107.87822	-580.24046	837.96207	71.21485	-722.31137	837.96207	71.21485	-722.31137	683.21607	1106.53312	-617.09617	696.35969	1242.38473	-637.92163	705.70455	1294.89211	-655.48746	739.11954	1494.48009	-720.28366	748.20781	1556.69559	-801.52351	748.20781	1556.69559	-801.52351	644.41632	1409.50545	-695.51151	518.60910	1445.68939	-714.98170	437.76783	1203.18492	-739.92420	435.98435	996.00228	-906.92442	448.51608	916.83153	-944.95728	448.51608	916.83153	-944.95728	794.93163	1404.94841	-659.89721	911.49120	1438.11514	-639.86167	998.80772	1194.43302	-682.81645	903.63300	1119.44231	-923.27385	870.66461	1058.61476	-980.43430	870.66461	1058.61476	-980.43430 
357	2.967	672.33002	984.39003	-605.60001	600.87409	912.61244	-589.60546	575.66465	584.38649	-796.83268	604.29936	183.75246	-646.78786	528.84579	132.73760	-755.95903	528.84579	132.73760	-755.95903	716.58443	890.01979	-571.70132	764.25548	518.51228	-665.62000	815.89359	108.21918	-582.01769	838.59252	70.92673	-723.96496	838.59252	70.92673	-723.96496	685.43161	1107.14214	-621.69161	698.71351	1243.03628	-642.14859	708.07994	1295.56258	-659.64623	741.61430	1495.14616	-724.39430	750.43537	1557.42550	-805.61469	750.43537	1557.42550	-805.61469	646.84811	1410.34688	-699.26463	521.00636	1446.76481	-718.06387	439.45520	1204.50232	-743.04693	436.85108	997.77231	-910.59639	448.88874	918.80926	-949.21608	448.88874	918.80926	-949.21608	797.51894	1405.43401	-664.36235	914.23130	1438.37365	-644.84842	1002.10106	1195.17910	-689.40825	904.89912	1121.15803	-929.35462	871.53133	1060.55138	-986.51796	871.53133	1060.55138	-986.51796 
358	2.975	674.45000	984.88998	-610.75001	602.95513	913.13577	-594.82469	581.28995	589.41975	-809.41607	604.47625	184.88005	-669.23385	528.33745	134.96487	-778.43761	528.33745	134.96487	-778.43761	718.69050	890.33520	-577.35112	765.38138	518.54086	-670.62498	817.61017	108.82640	-584.58728	840.07636	70.81366	-726.38043	840.07636	70.81366	-726.38043	687.65198	1107.68833	-626.40075	701.04685	1243.63344	-646.44119	710.42934	1296.18537	-663.85303	744.06577	1495.78505	-728.49849	752.62138	1558.15171	-809.68026	752.62138	1558.15171	-809.68026	649.24626	1411.14332	-703.04093	523.37805	1447.79626	-721.19522	441.61408	1205.60485	-746.17183	439.23135	998.74850	-913.56859	450.77893	920.11156	-952.99492	450.77893	920.11156	-952.99492	800.06624	1405.88342	-668.84046	916.92887	1438.59242	-649.84486	1005.29403	1195.89209	-696.08777	906.08194	1122.92199	-935.53280	872.37082	1062.53849	-992.73085	872.37082	1062.53849	-992.73085 
359	2.983	676.50002	985.21004	-616.05000	604.96742	913.47567	-600.20489	586.58804	594.15383	-821.57938	604.78858	186.61020	-689.60228	528.08294	137.39955	-798.72909	528.08294	137.39955	-798.72909	720.72467	890.47583	-583.14214	766.35985	518.38362	-675.74828	819.00322	109.43353	-586.39076	841.22875	70.59075	-727.99677	841.22875	70.59075	-727.99677	689.79928	1108.05327	-631.25992	703.30531	1244.04734	-650.88933	712.70613	1296.62275	-668.22025	746.45509	1496.22587	-732.79638	754.78086	1558.66220	-813.94849	754.78086	1558.66220	-813.94849	651.58034	1411.74230	-707.02124	525.70543	1448.46421	-724.98879	444.05609	1206.25393	-750.15676	440.42527	1000.14092	-918.44563	451.84292	921.64060	-958.18085	451.84292	921.64060	-958.18085	802.53555	1406.15063	-673.47632	919.56225	1438.57549	-655.01105	1008.27206	1196.38647	-703.23248	907.06117	1124.44113	-942.15050	873.04582	1064.25280	-999.37413	873.04582	1064.25280	-999.37413 
360	2.992	678.51997	985.28999	-621.53000	606.95015	913.58348	-605.72698	591.33188	598.27865	-832.99299	605.43453	188.48745	-707.64023	528.86081	139.94730	-817.15929	528.86081	139.94730	-817.15929	722.73240	890.38021	-589.11532	767.51373	518.07992	-681.30102	820.52178	109.96449	-588.41285	842.50270	70.22839	-729.80902	842.50270	70.22839	-729.80902	691.92118	1108.17299	-636.32357	705.54270	1244.21331	-655.54850	714.95808	1296.81613	-672.78809	748.80704	1496.45584	-737.19855	756.84808	1559.01637	-818.28370	756.84808	1559.01637	-818.28370	653.88322	1412.13303	-711.07994	528.00315	1448.80575	-729.11162	446.29271	1206.66570	-754.75264	440.96081	1001.70093	-924.39319	452.45745	923.07665	-963.85962	452.45745	923.07665	-963.85962	804.99602	1406.15907	-678.31965	922.16929	1438.34235	-660.36839	1011.22258	1196.70871	-710.69685	907.97282	1125.64733	-949.00624	873.64360	1065.61874	-1006.21022	873.64360	1065.61874	-1006.21022 
361	3.000	680.57999	985.74997	-626.78001	608.98985	914.04085	-611.08117	597.35695	601.57813	-842.47397	608.08925	189.89644	-723.12559	532.69566	142.02896	-833.75386	532.69566	142.02896	-833.75386	724.79468	890.67297	-594.86228	767.51718	517.75755	-685.52623	820.56254	110.56230	-588.70427	842.47609	70.59903	-730.04687	842.47609	70.59903	-730.04687	694.04810	1108.68022	-641.11298	707.73908	1244.77279	-659.91417	717.16201	1297.40266	-677.06687	751.04700	1497.06187	-741.39789	758.99213	1559.68114	-822.44714	758.99213	1559.68114	-822.44714	656.10638	1412.78678	-715.18646	530.19390	1449.61638	-732.66363	448.42551	1207.54712	-758.78375	438.73889	1007.31820	-933.80218	449.63430	929.90196	-975.74934	449.63430	929.90196	-975.74934	807.26620	1406.68752	-682.66703	924.57053	1438.64447	-665.17324	1013.98263	1197.59735	-717.63295	908.69405	1127.31160	-955.27938	874.05089	1067.42053	-1012.43822	874.05089	1067.42053	-1012.43822 
362	3.008	682.04002	986.35002	-631.58001	610.44540	914.59006	-616.13601	604.26045	603.44571	-849.50662	611.85542	190.18503	-735.49366	537.67629	142.75532	-847.12691	537.67629	142.75532	-847.12691	726.26077	891.11284	-600.15200	767.05477	517.51064	-688.85558	820.14889	111.30236	-587.99866	842.10140	71.41011	-729.35527	842.10140	71.41011	-729.35527	695.52960	1109.34146	-645.35712	709.24217	1245.49885	-663.66681	718.66948	1298.15809	-680.72671	752.57091	1497.81343	-745.06107	760.53073	1560.43834	-826.10453	760.53073	1560.43834	-826.10453	657.62375	1413.53587	-718.88134	531.69335	1450.59930	-735.72356	449.89350	1208.60087	-762.39569	437.56669	1011.54313	-940.81430	448.03926	935.01445	-984.46331	448.03926	935.01445	-984.46331	808.77050	1407.44697	-686.29932	926.21281	1439.15365	-669.28231	1016.12302	1198.74938	-723.80021	908.83153	1129.18991	-960.76353	873.89555	1069.42380	-1017.87492	873.89555	1069.42380	-1017.87492 
363	3.017	683.51997	986.02997	-634.43001	611.93203	914.19733	-619.29601	609.72461	604.17672	-854.22845	614.01006	189.60586	-744.89563	540.64960	142.32464	-857.13124	540.64960	142.32464	-857.13124	727.76369	890.60981	-603.59490	763.62593	517.09425	-694.76016	817.37818	111.82545	-590.52885	839.18659	71.23873	-731.70997	839.18659	71.23873	-731.70997	697.01471	1109.09440	-647.53379	710.74606	1245.33558	-665.19463	720.16985	1298.04791	-682.09174	754.11627	1497.79798	-746.10754	761.85061	1560.59793	-827.03729	761.85061	1560.59793	-827.03729	659.14702	1413.60113	-719.74881	533.09973	1451.09148	-734.66121	451.17256	1209.20128	-761.91797	436.95823	1014.47989	-942.74505	447.12953	938.57489	-987.53932	447.12953	938.57489	-987.53932	810.41001	1407.21657	-687.76838	927.97467	1438.72428	-671.23350	1018.46346	1199.01607	-727.81984	909.05020	1130.24212	-964.04109	873.80394	1070.61528	-1021.10740	873.80394	1070.61528	-1021.10740 
